<?xml version="1.0" encoding="utf-8"?>
<!-- Generator: Adobe Illustrator 27.8.1, SVG Export Plug-In . SVG Version: 6.00 Build 0)  -->
<svg version="1.1" id="Layer_1" xmlns="http://www.w3.org/2000/svg" xmlns:xlink="http://www.w3.org/1999/xlink" x="0px" y="0px"
	 viewBox="0 0 1150 627.5" style="enable-background:new 0 0 1150 627.5;" xml:space="preserve">
<style type="text/css">
	.st0{opacity:0.1;fill:#007BFF;enable-background:new    ;}
	.st1{fill:#454B69;}
	.st2{fill:none;}
	.st3{opacity:0.4;enable-background:new    ;}
	.st4{opacity:0.1;enable-background:new    ;}
	.st5{fill:#EFB7B9;}
	.st6{fill:#FFFFFF;}
	.st7{fill:#007BFF;}
	.st8{opacity:0.1;}
	.st9{opacity:8.000000e-02;enable-background:new    ;}
	.st10{fill:#3F3D56;}
	.st11{fill:#9C9CA1;}
	.st12{fill:#939498;}
	.st13{display:none;}
	.st14{display:inline;fill:#FFFFFF;}
	.st15{display:inline;}
	.st16{fill:none;stroke:#E4EAEF;stroke-width:2;stroke-miterlimit:10;}
	.st17{opacity:0.5;fill:url(#SVGID_1_);enable-background:new    ;}
	.st18{opacity:0.5;fill:url(#SVGID_00000079454333655650125100000006371236477490473129_);enable-background:new    ;}
	.st19{fill:#4ED192;}
	.st20{opacity:0.5;fill:url(#SVGID_00000125597759810831107790000015373364833573397917_);enable-background:new    ;}
	.st21{opacity:0.5;fill:url(#SVGID_00000138566346079987654000000015926541872977755071_);enable-background:new    ;}
	.st22{fill:#F42A6D;}
	.st23{opacity:0.5;fill:url(#SVGID_00000140713029814833440420000009735529990141729664_);enable-background:new    ;}
	.st24{opacity:0.5;fill:url(#SVGID_00000007418659596134257210000016861178789407424445_);enable-background:new    ;}
	.st25{fill:#67C8F9;}
	.st26{fill:#B3B9C6;}
	.st27{fill:#E4EAEF;}
</style>
<g id="a02f2390-8fa7-48a9-96f1-2ec5f63ecbc1">
	<path class="st0" d="M1137.8,582.2c-4.5,11-10,21.6-16.4,31.6c-3,4.8-6.3,9.3-9.9,13.7l-0.1,0.1H0l0.1-0.1c1-0.8,6.9-5.5,16-13.7
		c6.5-5.8,14.8-13.4,24-22.5c75.5-74.2,220.5-250,99.7-411C27.6,30.5,148.5,3.4,228.2,0.2C258.9-1,289.4,4,318.1,14.9
		c36.8,14,104.2,35.5,191.9,45.3c2.9,0.3,5.8,0.6,8.7,0.9c46.4,4.7,93.2,5.6,139.8,2.5l0,0c1.4-0.1,2.8-0.2,4.1-0.3
		c46.1-3.2,91.8-10.3,136.7-21.1c2.9-0.7,5.8-1.4,8.6-2.1c149.6-34.6,287.6,83.4,253.1,216.7c-12.8,49.3-9.5,101.9,33,144.4
		C1163.7,470.7,1155.2,539.1,1137.8,582.2z"/>
	<path class="st1" d="M1137.8,582.2c-4.5,11-10,21.6-16.4,31.6c-3,4.8-6.3,9.3-9.9,13.7H0.1c1-0.8,6.9-5.5,16-13.7
		c6.5-5.8,14.8-13.4,24-22.5L157.3,567c1.5-0.3,3.1-0.5,4.6-0.5l124.9-0.2h0.1l61.9-0.1h0.1l52.2-0.1h34.2l0,0h35l143.4-0.2h0.2H625
		h19.5h24.4h6.5l24.6-0.3h8.1l71.6-0.1h22.9l0,0h11l0,0l82.8-0.1H921l78.4-0.1l66.2-0.1c1.8,0,3.7,0.2,5.5,0.7L1137.8,582.2z"/>
	<path class="st2" d="M16.2,613.7h1105.2c-3,4.8-6.3,9.3-9.9,13.7H0.1C1.1,626.6,7,621.8,16.2,613.7z"/>
	<path class="st3" d="M16.2,613.7h1105.2c-3,4.8-6.3,9.3-9.9,13.7H0.1C1.1,626.6,7,621.8,16.2,613.7z"/>
	<path class="st1" d="M733.2,302.7l-2.2,0.4l-100.4,19.3c-29.2,5.6-58.7,11.2-88.3,9.1c-21.5-1.6-41.5-7.9-62.1-13.5
		c-11.6-3.2-24-4.4-28-17.5c-5.5-18,3.4-44.7,5.5-62.9c2-17.9,3.2-36.2-0.4-53.9c-0.8-4-1.8-7.9-3.1-11.7
		c-3.6-10.6-9.2-21.6-6.1-32.4c2.4-8.5,9.7-14.6,16.5-20.3c13.4-11,27-23.3,32.3-39.8c2.6-8,3.1-16.6,5.9-24.6
		c5.3-15.1,18.7-26.4,33.5-32.4s31.2-7.2,47.2-7.2c14.1,0,28.3,0.9,42.3,2.8c15.3,2,30.7,5.3,44.1,12.9s24.8,20,27.9,35.1
		c4.4,21.4-7.9,44.2-1.3,65c3.3,10.5,11,19,16.3,28.6c8.8,16.3,10.6,35.4,5,53c-6.4,19.8-22,39.8-14,58.9
		c5.1,12.2,18.1,18.7,27.2,28.4C731.8,301,732.5,301.9,733.2,302.7z"/>
	<path class="st4" d="M731,300.2v3l-100.4,19.3c-29.2,5.6-58.7,11.2-88.3,9.1c-21.5-1.6-41.5-7.9-62.1-13.5
		c-11.6-3.2-24-4.4-28-17.5c-5.5-18,3.4-44.7,5.5-62.9c2-17.9,32.8-83.2,29.2-100.9l184,8c1.2,9.8,49.9,58.8,46.8,68.2
		c-6.4,19.8-22,39.8-14,58.9C708.9,284,721.9,290.6,731,300.2z"/>
	<path class="st5" d="M543,250.7c1.1,6.2,1.7,13-1.5,18.4c-4.2,7.2-13.4,9.5-21.6,11.2l-28.5,5.7c-1.9,0.4-4,0.8-5.5,2.2
		c-1.7,1.5-2.3,4-2.5,6.2c-1.1,10.3,2.5,20.5,5.8,30.3c6.7,19.9,12.4,40.2,20.9,59.4c8.5,19.2,20.2,37.5,36.9,50.4
		s38.7,19.7,59.1,14.7c17.8-4.4,32.4-16.9,44.9-30.2c10.4-11,20.1-23,25.1-37.3c3.5-9.8,4.6-20.2,5.7-30.6
		c1.7-15.9,3.4-31.7,5.1-47.6c0.8-7.4,1.3-15.8-3.5-21.5c-2.1-2.5-5-4.2-7.9-5.7c-10.9-5.8-22.5-10.6-32.6-17.6
		c-10.2-7-19.2-16.6-22.3-28.6c-1.8-7.2-1.5-15-4.7-21.7c-3.5-7.5-11-12.6-19-14.8s-16.4-1.9-24.7-1s-40,3.3-43.4,12.6
		c-1.8,5,5.8,15.7,7.6,20.6C539.3,234,541.5,242.3,543,250.7z"/>
	<path class="st4" d="M543,250.7c1.1,6.2,1.7,13-1.5,18.4c-4.2,7.2-13.4,9.5-21.6,11.2l-28.5,5.7c-1.9,0.4-4,0.8-5.5,2.2
		c-1.7,1.5-2.3,4-2.5,6.2c-1.1,10.3,2.5,20.5,5.8,30.3c6.7,19.9,12.4,40.2,20.9,59.4c8.5,19.2,20.2,37.5,36.9,50.4
		s38.7,19.7,59.1,14.7c17.8-4.4,32.4-16.9,44.9-30.2c10.4-11,20.1-23,25.1-37.3c3.5-9.8,4.6-20.2,5.7-30.6
		c1.7-15.9,3.4-31.7,5.1-47.6c0.8-7.4,1.3-15.8-3.5-21.5c-2.1-2.5-5-4.2-7.9-5.7c-10.9-5.8-22.5-10.6-32.6-17.6
		c-10.2-7-19.2-16.6-22.3-28.6c-1.8-7.2-1.5-15-4.7-21.7c-3.5-7.5-11-12.6-19-14.8s-16.4-1.9-24.7-1s-40,3.3-43.4,12.6
		c-1.8,5,5.8,15.7,7.6,20.6C539.3,234,541.5,242.3,543,250.7z"/>
	<path class="st6" d="M611.6,359.5l16.7-35.4c7.8-16.6,15.8-34,15-52.3c-0.2-3.6-0.2-8.2,3-9.8c1.4-0.6,2.9-0.8,4.4-0.6
		c17.6,0.9,35,4.4,51.5,10.4c3.2,1.2,6.5,2.5,8.8,5.1s3.2,6,3.9,9.3c2.6,11.2,4.5,22.5,5.7,33.9c3,28.2,1.5,56.7,0,85l-4.4,86.4
		c0,1.2-0.2,2.4-0.7,3.6c-1.1,2-3.6,2.7-5.8,3c-8.6,1.5-17.4,1.2-26.1,0.8c-61.2-2.3-122.7-5.9-183.5,1.5c0.3-9,0.1-18-0.4-27
		c-2.4-38.9-12.5-76.8-22.4-114.5c-5.8-22-11.4-46-2.1-66.7c1.4-3.3,3.3-6.3,5.8-8.8c4-3.9,9.3-5.9,14.7-7.4
		c9.2-2.5,18.8-3.6,28.3-3.2l63,137.3c2.9,6.3,5.2,12.9,8.1,19.1c2.6-10.7-0.5-23.3,2.6-34.9C601,382.3,606.3,370.7,611.6,359.5z"/>
	<path class="st7" d="M605,453.9c11.3,0.7,22.2-5.1,30-13.2s12.9-18.5,17.2-29c6.2-14.9,11.2-30.3,14.8-46.1
		c3-13.4,5.1-27.3,3.1-40.9c-2.9-18.8-13.5-35.8-15.3-54.7c-0.3-3.3-0.1-7.2,2.5-9.1c1.6-1.2,3.8-1.4,5.8-1.5
		c18.9-1.1,39.6-0.9,54.2,11.1c4.5,3.6,8.1,8.2,12.4,11.9c10.4,9,25,13.6,31.7,25.5c2.3,4.2,3.4,8.9,5,13.3
		c3.8,10.6,10.4,19.9,17,29.1c-6.4,26.9-13.7,53.8-20.1,80.7c-3.7,15.8-7.5,31.6-13.3,46.7c-3.8,9.9-8.7,20-7.5,30.6
		c0.5,4.2,1.9,8.2,3.1,12.2c4.2,14.1,6.2,28.8,5.9,43.5l-285.3,0.7c13.7-19.6,17.7-43.6,16.3-67.5c-0.7-11.4-3.2-22.9-9-32.8
		c-9.1-15.5-25-25.6-40.7-34.2c-11-6-22.8,27.8-34.7,23.9c1.9-13.6,2.8-66,2-79.7c-0.3-4.5-0.7-9.1,0.7-13.4
		c0.9-2.9,2.7-5.5,3.8-8.4c4.7-11.4,0.2-26,7.8-35.7c5.2-6.8,14.4-8.7,21.9-12.8c7.7-4.3,13.6-11,20.3-16.7
		c13.1-11.1,29.1-18.3,46.2-20.6c5,7.8,8,16.8,8.8,26c0.5,5.8,0.1,11.7,1,17.5c1.1,7.8,4.3,15.2,7.6,22.4
		c13.4,30.2,26.8,60.5,43.7,88.8c4.8,8,10,16,16.9,22.2S595.7,454.4,605,453.9z"/>
	<path class="st4" d="M605,453.9c11.3,0.7,22.2-5.1,30-13.2s12.9-18.5,17.2-29c6.2-14.9,11.2-30.3,14.8-46.1
		c3-13.4,5.1-27.3,3.1-40.9c-2.9-18.8-13.5-35.8-15.3-54.7c-0.3-3.3-0.1-7.2,2.5-9.1c1.6-1.2,3.8-1.4,5.8-1.5
		c18.9-1.1,39.6-0.9,54.2,11.1c4.5,3.6,8.1,8.2,12.4,11.9c10.4,9,25,13.6,31.7,25.5c2.3,4.2,3.4,8.9,5,13.3
		c3.8,10.6,10.4,19.9,17,29.1c-6.4,26.9-13.7,53.8-20.1,80.7c-3.7,15.8-7.5,31.6-13.3,46.7c-3.8,9.9-8.7,20-7.5,30.6
		c0.5,4.2,1.9,8.2,3.1,12.2c4.2,14.1,6.2,28.8,5.9,43.5l-285.3,0.7c13.7-19.6,17.7-43.6,16.3-67.5c-0.7-11.4-3.2-22.9-9-32.8
		c-9.1-15.5-25-25.6-40.7-34.2c-11-6-22.8,27.8-34.7,23.9c1.9-13.6,2.8-66,2-79.7c-0.3-4.5-0.7-9.1,0.7-13.4
		c0.9-2.9,2.7-5.5,3.8-8.4c4.7-11.4,0.2-26,7.8-35.7c5.2-6.8,14.4-8.7,21.9-12.8c7.7-4.3,13.6-11,20.3-16.7
		c13.1-11.1,29.1-18.3,46.2-20.6c5,7.8,8,16.8,8.8,26c0.5,5.8,0.1,11.7,1,17.5c1.1,7.8,4.3,15.2,7.6,22.4
		c13.4,30.2,26.8,60.5,43.7,88.8c4.8,8,10,16,16.9,22.2S595.7,454.4,605,453.9z"/>
	<circle class="st5" cx="589.9" cy="162.8" r="85.7"/>
	<path class="st1" d="M544.9,277c2.3-22.2-6.9-43.9-17.3-63.6c-5-9.4-10.4-18.8-12.9-29.2s-1.8-22.1,4.6-30.6
		c5.5-7.2,14.1-11.1,22.1-15.4c22.6-12,43.3-29.6,53.2-53.2c-5.6,3.1-4.2,12.2,0.8,16.2s11.7,4.8,17.8,6.7
		c22.2,7,35.6,29.2,46.3,49.9c1.8,3.4,3.5,7,3.5,10.8s-1.8,7.2-3.6,10.4c-5.3,9.4-11.7,18.4-14.1,28.9c-2.8,12,0.2,24.6,3.9,36.4
		c4,12.5,9.3,25.1,18.9,34.1s24.5,13.4,36.3,7.6c-11.8-20.3-24-42.9-19.4-65.9c2.2-11,8.2-21,10.7-31.9c4.8-20.9-3.2-42.3-11.1-62.3
		L661,66.5c-3.6-9.1-7.7-18.8-16-23.9c-5.6-3.5-12.4-4.4-18.9-5c-21.1-1.9-43-1.3-62.7,6.6c-35.8,14.3-58.3,49.6-76.1,83.8
		c-5.3,10.2-10.6,21.1-10.4,32.7c0.1,6.3,1.9,12.5,3.3,18.7c5.9,25.2,6.2,51.2,6.5,77.1c0.2,19.8-0.8,38.5-9.5,56.5
		c11.9,2.4,29.1,8.7,40.9,4.1C533.6,311.1,543,292.4,544.9,277z"/>
	<g class="st8">
		<path d="M486.8,256.1c0-2.8,0-5.7,0-8.5c-0.3-25.8-0.6-51.9-6.5-77.1c-1.3-4.9-2.3-9.9-3.1-14.9c-0.2,1.7-0.3,3.5-0.3,5.2
			c0.1,6.3,1.9,12.5,3.3,18.7C486.1,204.5,486.5,230.4,486.8,256.1z"/>
		<path d="M695.9,188.3c1.3-5.8,1.8-11.8,1.3-17.8c-0.2,3-0.6,5.9-1.3,8.8c-2.5,11-8.5,20.9-10.7,31.9c-1,4.9-1.2,9.8-0.8,14.8
			c0.2-1.9,0.4-3.9,0.8-5.8C687.4,209.2,693.3,199.3,695.9,188.3z"/>
		<path d="M662.4,164c0.5-1.4,0.8-2.9,0.8-4.4c0-3.8-1.8-7.4-3.5-10.8c-10.7-20.7-24-42.9-46.3-49.9c-6.1-1.9-12.8-2.7-17.8-6.7
			c-2.6-2.2-4.2-5.4-4.4-8.8c-10.8,19.9-29.5,35.1-49.6,45.8c-8,4.2-16.7,8.2-22.1,15.4c-5.1,6.8-6.6,15.6-5.7,24.2
			c0.5-5.5,2.5-10.7,5.7-15.2c5.5-7.2,14.1-11.1,22.1-15.4c20.2-10.7,38.8-25.9,49.6-45.8c0.2,3.4,1.8,6.6,4.4,8.8
			c5,4,11.7,4.8,17.8,6.7c22.2,7,35.6,29.2,46.3,49.9C660.7,159.8,661.6,161.9,662.4,164z"/>
		<path d="M668.2,269.5c-9.6-9-14.9-21.6-18.9-34.1c-2.4-7-4-14.3-4.8-21.7c-0.9,10.3,1.6,20.8,4.8,30.7c4,12.5,9.3,25.1,18.9,34.1
			c9.6,9,24.5,13.4,36.3,7.6c-1.4-2.4-2.8-4.9-4.2-7.4C689.3,281.8,676.8,277.5,668.2,269.5z"/>
		<path d="M544.9,268c-1.9,15.4-11.4,34.1-26.7,40.2c-10.7,4.2-25.9-0.6-37.5-3.3c-1,2.8-2.1,5.6-3.4,8.2
			c11.9,2.4,29.1,8.7,40.9,4.1c15.4-6.1,24.8-24.8,26.7-40.2c0.4-3.9,0.5-7.7,0.2-11.6C545.1,266.2,545,267.1,544.9,268z"/>
	</g>
	<path class="st6" d="M666.1,515.9c-15.5-2.5-31.1-7.2-46.5-4c-8.9,1.8-17,6.3-24.4,11.6c4.1,3.2,8.8,6.2,11.4,10.7
		c1.6,3.1,2.8,6.4,3.6,9.9c1.6,6,3.2,12.1,3.5,18.4s-1,12.7-4.7,17.8c19.5,1.9,38.4-2.9,57.4-7.6c2.2-0.4,4.2-1.2,6.1-2.5
		c3-2.4,3.9-6.6,3.9-10.4c0-6.8-1.9-13.5-3.9-20.1C670.2,531.8,668.4,523.7,666.1,515.9z"/>
	<path class="st7" d="M770.4,347.2c7.7,1,13.6,7.2,18,13.5c12.3,17.7,17.6,39.2,23.5,59.9c7.3,25.8,16,51.2,25.9,76.1
		c2.1,5.8,4.7,11.4,7.8,16.7c2.5,4.1,5.5,8.1,6.6,12.8c2.6,11.3-6.7,22-16.5,28.3c-5.2,3.5-10.9,6.2-16.8,8.1
		c-5.8,1.7-11.9,2.4-17.9,3.1l-55.5,6c-25.5,2.8-51.3,5.6-76.9,2.9c-1.6-5.6,1.5-9.6,1.3-15.4c-0.2-4.2-2-8-3.6-11.9
		c-3-6.8-5-14.1-5.9-21.5c-0.3-2.7-0.4-5.5-1.4-8.1s-3.3-4.8-6-5c15-1.5,26.4-4.3,41.4-5.8c5.6-0.6,11.4-1.2,16.1-4.2
		c5.9-3.7,9.2-10.3,11.8-16.7c6.5-15.9,10.7-33.4,7.3-50.3c-2.8-13.8-10.6-26.7-10.6-40.8c0-8.4,2.9-16.5,6.2-24.2
		c3.6-8.1,8.2-16.4,16.1-20.5S761.5,346,770.4,347.2z"/>
	<path class="st9" d="M770.4,347.2c7.7,1,13.6,7.2,18,13.5c12.3,17.7,17.6,39.2,23.5,59.9c7.3,25.8,16,51.2,25.9,76.1
		c2.1,5.8,4.7,11.4,7.8,16.7c2.5,4.1,5.5,8.1,6.6,12.8c2.6,11.3-6.7,22-16.5,28.3c-5.2,3.5-10.9,6.2-16.8,8.1
		c-5.8,1.7-11.9,2.4-17.9,3.1l-55.5,6c-25.5,2.8-51.3,5.6-76.9,2.9c-1.6-5.6,1.5-9.6,1.3-15.4c-0.2-4.2-2-8-3.6-11.9
		c-3-6.8-5-14.1-5.9-21.5c-0.3-2.7-0.4-5.5-1.4-8.1s-3.3-4.8-6-5c15-1.5,26.4-4.3,41.4-5.8c5.6-0.6,11.4-1.2,16.1-4.2
		c5.9-3.7,9.2-10.3,11.8-16.7c6.5-15.9,10.7-33.4,7.3-50.3c-2.8-13.8-10.6-26.7-10.6-40.8c0-8.4,2.9-16.5,6.2-24.2
		c3.6-8.1,8.2-16.4,16.1-20.5S761.5,346,770.4,347.2z"/>
	<path class="st5" d="M422.8,334.3c3.6-8.6,7.3-17.5,7.4-26.9c0.1-10.1-4-19.7-7.1-29.3c-3.9-11.7-6.5-23.9-7.7-36.2
		c-0.3-1.2-0.1-2.4,0.5-3.5c0.8-1.2,2.4-1.4,3.8-1.7c6.9-1.6,12.1-7.2,16.5-12.8c6.7-8.7,12.4-18.1,16.9-28.2
		c3.3-7.4,7.8-16.4,15.9-16.4c-3.3,15.3-7.3,30.4-12.1,45.2c8.5-2.2,16.5-5.3,24.9-7.5c1.7-0.5,3.4-0.8,5.1-0.7
		c5.1,0.5,8.2,7.4,5.2,11.5c4.1,4.8,11,6.1,16.4,9.5c5.4,3.4,9.3,11.5,4.5,15.7c-0.9,0.8-2.1,1.4-2.8,2.4c-2.3,3.6,3.4,7.7,2.9,11.9
		c-0.4,3.5-4.8,5.1-8.2,4.2s-6-3.4-9-5.3s-6.9-3-9.8-1.1c-0.8,9.4-1.6,19-5.7,27.6c-1.5,3.1-3.4,6.1-4.6,9.3
		c-1.1,3.5-1.9,7.2-2.1,10.9l-3.6,33.2C452.7,349.7,437.1,344.5,422.8,334.3z"/>
	<path class="st6" d="M418.6,364l-3.2-21.6c-0.3-1.8-0.5-3.5-0.5-5.3c0-5,2.2-9.8,4.3-14.3c17.6,8.2,36.7,11.2,56.2,11.2
		c2.6,0,5.5-0.2,7.1-2.2c3.3,3.8,3.4,9.9,2,14.8c-1.4,4.8-4.1,9.2-5.9,13.9c-0.9,2.4-1.6,5-3.4,6.8c-2.7,2.9-7.1,3.4-11.1,3.4
		c-4.2,0-8.4-0.4-12.5-1.2C441,367.5,429.2,362.1,418.6,364z"/>
	<path class="st7" d="M484.4,363.1c-13.7-1.6-27.3-3.8-40.8-6.6c-6.6-1.4-13.3-2.9-20.1-2.7c-4.4,0.2-9.1,1.1-13-1.1
		c3.8,12.8,4,26.3-0.5,38.9c-2.7,7.5-6.7,14.5-8.7,22.2c-4.1,16.2,1.5,33.8-3.6,49.6c-0.5,2.1-1.6,4-3.1,5.5
		c-1.6,1.4-3.7,2.2-5.1,3.7c-2.1,2.3-2.2,5.7-2.3,8.8l-0.1,27.5c-0.1,17.5,0.2,36.1,9.4,51c10.6,17,32.8,25.8,52.1,20.6
		c5.1-1.3,10-3.7,14.2-6.9c6.7-5.3,11-13.1,15.2-20.6c5-9,10-18.2,11.6-28.3c1.1-7.2,0.5-14.5-0.3-21.7
		c-4.5-40-14.3-79.7-12.2-119.8C477.5,376.1,480,369,484.4,363.1z"/>
	<path class="st5" d="M541.7,529.1c-7,0.4-14,0.8-20.9,0c-5-0.6-9.9-1.8-14.8-2.7c-27.4-4.4-55.4,3.3-76.6,21.3
		c-3.8,3.3-7.7,8.3-5.6,12.9c2.3,4.9,9.2,4.8,14.6,3.9c-5.8,2.8-10.9,6.8-15,11.7c-1.5,1.8-2.9,4-2.6,6.4c0.6,5,7.3,5.8,12.3,5.4
		c-1.6,1.7-0.5,4.8,1.5,6s4.6,0.9,7,0.5c5.2-0.9,10.1-2.7,14.8-5.1c-0.9,2.5,0.7,5.3,3,6.5s5.1,1.1,7.7,0.7
		c12.2-2,22.4-10.5,34.3-13.8c19.1-5.3,39,3.2,58.8,3.8c6.2,0.2,12.6-0.4,18.2-3c6.9-3.2,12.5-9.1,19.8-11.2
		c8.1-2.3,17.5,0.3,24.9-3.7c5.4-2.9,0.5-25.3-0.8-29.7c-2.5-7.9-5.1-13.1-13.5-13.9C587.4,523.1,563.2,527.9,541.7,529.1z"/>
	<path class="st6" d="M594.9,523c0,0,32.3,27.3,13.7,57.2l36-12.4v-26.1c0-1.2-13.7-19.9-13.7-19.9l-16.2-2.5L594.9,523z"/>
	<path class="st10" d="M256.8,521.3h12.1c13.8,0,25,11.2,25,25v37.1l0,0h-62.1l0,0v-37.1C231.8,532.5,243,521.3,256.8,521.3
		L256.8,521.3z"/>
	<path class="st4" d="M256.8,521.3h12.1c13.8,0,25,11.2,25,25v37.1l0,0h-62.1l0,0v-37.1C231.8,532.5,243,521.3,256.8,521.3
		L256.8,521.3z"/>
	<circle class="st10" cx="260.4" cy="530" r="5"/>
	<circle class="st10" cx="260.4" cy="523.8" r="5"/>
	<circle class="st10" cx="260.4" cy="517.6" r="5"/>
	<circle class="st10" cx="260.4" cy="511.4" r="5"/>
	<circle class="st10" cx="260.4" cy="505.2" r="5"/>
	<circle class="st10" cx="260.4" cy="499" r="5"/>
	<circle class="st10" cx="260.4" cy="492.7" r="5"/>
	<circle class="st10" cx="267.8" cy="495.2" r="5"/>
	<circle class="st10" cx="272.8" cy="492.7" r="5"/>
	<circle class="st10" cx="277.8" cy="490.3" r="5"/>
	<circle class="st10" cx="260.4" cy="486.5" r="5"/>
	<circle class="st10" cx="260.4" cy="480.3" r="5"/>
	<circle class="st10" cx="260.4" cy="474.1" r="5"/>
	<circle class="st10" cx="260.4" cy="467.9" r="5"/>
	<path class="st7" d="M281,451.9c-1.2,0.2-2.5,0.3-3.7,0.4c1.2-1,2.2-2.1,3.2-3.3c-0.7-2.1-1.7-4.1-3-5.8c-1.2,0.7-2.6,1.1-4,1.3
		c-1.2,0.2-2.5,0.3-3.7,0.4c1.6-1.3,3.1-3.3,4.8-5c-8.6-7.8-22-7.2-29.8,1.5c-7.8,8.6-7.2,22,1.5,29.8c8.6,7.8,22,7.2,29.8-1.5
		c3.5-3.9,5.5-8.9,5.5-14.2c0-1.2-0.1-2.4-0.3-3.6L281,451.9z"/>
	<path class="st7" d="M297.6,476.6c-1.3,0.8-2.7,1.3-4.2,1.4c-1.2,0.2-2.5,0.3-3.7,0.4c1.3-1.2,2.5-2.5,3.7-3.8
		c-6.6-1.7-13.4,2.3-15.2,8.9c-1.7,6.6,2.3,13.4,8.9,15.2c6.6,1.7,13.4-2.3,15.2-8.9C303.5,484.8,301.7,479.5,297.6,476.6
		L297.6,476.6z"/>
	<circle class="st10" cx="252.9" cy="495.2" r="5"/>
	<circle class="st10" cx="247.9" cy="492.7" r="5"/>
	<circle class="st10" cx="243" cy="490.3" r="5"/>
	<path class="st7" d="M223.2,476.6c1.3,0.8,2.7,1.3,4.2,1.4c1.2,0.2,2.5,0.3,3.7,0.4c-1.3-1.2-2.6-2.5-3.7-3.8
		c6.6-1.7,13.4,2.3,15.2,8.9c1.7,6.6-2.3,13.4-8.9,15.2c-6.6,1.7-13.4-2.3-15.2-8.9C217.2,484.8,219,479.5,223.2,476.6L223.2,476.6z
		"/>
	<path class="st10" d="M256.8,525h12.1c13.8,0,25,11.2,25,25l0,0v32.9c0,2.3-1.9,4.2-4.2,4.2H236c-2.3,0-4.2-1.9-4.2-4.2V550
		C231.8,536.2,243,525,256.8,525L256.8,525z"/>
	<g class="st8">
		<path d="M281.3,453.2c-0.5,0.5-1,1-1.6,1.5c0.6,0,1.1-0.1,1.7-0.2C281.4,454.1,281.4,453.7,281.3,453.2z"/>
		<path d="M272.3,447.3c1.2-0.1,2.5-0.2,3.7-0.4c1.1-0.1,2.2-0.4,3.2-0.9c-0.5-1-1.1-2-1.7-2.9c-0.6,0.4-1.3,0.7-2,0.8
			C274.5,445.2,273.4,446.3,272.3,447.3z"/>
		<path d="M241.7,458c0-11.6,9.4-21.1,21-21.1c4.1,0,8,1.2,11.5,3.4l0.3-0.3c-8.7-7.7-22-7-29.8,1.7s-7,22,1.7,29.8
			c0.1,0.1,0.2,0.1,0.2,0.2C243.5,467.8,241.7,463,241.7,458z"/>
	</g>
	<g class="st8">
		<path d="M289.7,480.8c1.2-0.1,2.5-0.2,3.7-0.4c1.5-0.1,2.9-0.6,4.2-1.4c2.8,2.1,4.7,5.3,5,8.8c0-0.4,0.1-0.9,0.1-1.3
			c0-3.9-1.8-7.7-5-10c-1.3,0.8-2.7,1.3-4.2,1.4l-1,0.1C291.6,479,290.7,480,289.7,480.8z"/>
		<path d="M290.2,476.6c0.4,0,0.8,0,1.2,0.1c0.6-0.7,1.3-1.4,1.9-2.2c-6.6-1.8-13.4,2.2-15.2,8.8c-0.3,1.1-0.4,2.1-0.4,3.2
			c0,0.4,0,0.8,0.1,1.2C278.5,481.4,283.8,476.6,290.2,476.6z"/>
	</g>
	<g class="st8">
		<path d="M231,480.8c-1.2-0.1-2.5-0.2-3.7-0.4c-1.5-0.1-2.9-0.6-4.2-1.4c-2.8,2.1-4.7,5.3-5,8.8c0-0.4-0.1-0.9-0.1-1.3
			c0-3.9,1.8-7.7,5-10c1.3,0.8,2.7,1.3,4.2,1.4l1,0.1C229.1,479.1,230,480,231,480.8z"/>
		<path d="M230.6,476.6c-0.4,0-0.8,0-1.2,0.1c-0.6-0.7-1.3-1.4-1.9-2.2c6.6-1.8,13.4,2.2,15.2,8.8c0.3,1.1,0.4,2.1,0.4,3.2
			c0,0.4,0,0.8-0.1,1.2C242.3,481.4,236.9,476.6,230.6,476.6z"/>
	</g>
	<path class="st7" d="M196.9,599.1H99.2c-2.3,0-4.2-1.9-4.2-4.2l0,0v-46.2c0-2.3,1.9-4.2,4.1-4.2c0.6,0,1.2,0.1,1.8,0.4
		c28.1,13.3,58.3,17.9,94,0.2c2.1-1,4.6-0.2,5.6,1.9c0.3,0.6,0.4,1.2,0.4,1.8v46C201,597.2,199.1,599.1,196.9,599.1L196.9,599.1z"/>
	<path class="st4" d="M196.9,599.1H99.2c-2.3,0-4.2-1.9-4.2-4.2l0,0v-46.2c0-2.3,1.9-4.2,4.1-4.2c0.6,0,1.2,0.1,1.8,0.4
		c28.1,13.3,58.3,17.9,94,0.2c2.1-1,4.6-0.2,5.6,1.9c0.3,0.6,0.4,1.2,0.4,1.8v46C201,597.2,199.1,599.1,196.9,599.1L196.9,599.1z"/>
	<ellipse class="st10" cx="147.3" cy="556.4" rx="5.8" ry="7.6"/>
	<ellipse class="st10" cx="147.3" cy="547.2" rx="5.8" ry="7.6"/>
	<ellipse class="st10" cx="147.3" cy="537.9" rx="5.8" ry="7.6"/>
	<ellipse class="st10" cx="147.3" cy="528.7" rx="5.8" ry="7.6"/>
	<ellipse class="st10" cx="147.3" cy="519.4" rx="5.8" ry="7.6"/>
	<ellipse class="st10" cx="147.3" cy="510.1" rx="5.8" ry="7.6"/>
	<ellipse class="st10" cx="147.3" cy="500.9" rx="5.8" ry="7.6"/>
	<path class="st7" d="M169,437.5c0.8-1,1.5-2.1,2.1-3.2l-15.2-2.5l16.4,0.1c3.2-6.9,3.4-14.9,0.5-22l-22.1,11.4l20.3-15
		c-7.7-13.2-24.6-17.8-37.9-10.1s-17.8,24.6-10.1,37.9c0.7,1.1,1.4,2.2,2.2,3.3c-1.2,1.6-2.3,3.3-3.2,5l19.7,10.4l-21-7.1
		c-3,8.9-1.3,18.6,4.5,26c-9.5,12-7.4,29.4,4.6,38.9c12,9.5,29.4,7.4,38.9-4.6c7.9-10.1,7.9-24.2,0-34.3
		C176.9,461.7,176.9,447.5,169,437.5L169,437.5z"/>
	<path class="st4" d="M119.5,454.7c0,6.2,2.1,12.3,5.9,17.1c-9.5,12-7.4,29.4,4.6,38.9s29.4,7.4,38.9-4.6c7.9-10.1,7.9-24.2,0-34.3
		C172.7,467.1,119.5,451.6,119.5,454.7z"/>
	<path class="st7" d="M196.9,601.6H99.2c-2.3,0-4.2-1.9-4.2-4.2l0,0v-48.7c0-2.3,1.9-4.2,4.1-4.2c0.6,0,1.2,0.1,1.8,0.4
		c28.1,13.3,50.3,28.8,94,0.2c2.6-1.7,6,0.6,6,3.7v48.5C200.9,599.7,199.1,601.5,196.9,601.6z"/>
	<polygon class="st11" points="921.8,587.8 777.7,606.9 770.5,607.8 700,570.2 700,561.4 920.2,537.4 	"/>
	<polygon class="st12" points="740.8,574.2 897,555.8 895.4,584.6 773.8,593.5 	"/>
	<path class="st3" d="M777.7,597.4v9.5l-7.2,1L700,570.2v-8.8l67.3,36C767.3,597.4,776.1,598.2,777.7,597.4z"/>
	<path class="st10" d="M805.4,447.3l-32.4,150c-1.1,5.2,2.2,10.3,7.3,11.4c1.1,0.2,2.2,0.3,3.3,0.1l204.7-27.1
		c3.6-0.5,6.7-3,7.8-6.5l44.2-133.2c1.7-5-1.1-10.5-6.1-12.1c-1.1-0.4-2.3-0.5-3.5-0.5l-216.5,10.3
		C809.9,439.9,806.3,443,805.4,447.3z"/>
	
		<ellipse transform="matrix(0.1045 -0.9945 0.9945 0.1045 317.6162 1356.7997)" class="st6" cx="912.2" cy="502" rx="8.7" ry="5.6"/>
</g>
<g id="a02f2390-8fa7-48a9-96f1-2ec5f63ecbc1_copy">
	<path class="st0" d="M1197.8,674.9c-5.1,12.6-11.4,24.6-18.7,36c-3.5,5.4-7.2,10.6-11.4,15.6c0,0.1-0.1,0.1-0.1,0.1H-101.7l0.2-0.1
		c1.1-0.9,7.8-6.3,18.3-15.6c7.5-6.7,16.9-15.3,27.4-25.7C30.4,600.4,196,399.7,58.1,215.8C-70.1,44.9,67.9,13.9,159,10.2
		c35-1.4,69.9,4.3,102.6,16.8c42.1,16,119,40.5,219.2,51.7c3.3,0.4,6.6,0.7,10,1.1c53,5.4,106.4,6.4,159.6,2.9l0,0
		c1.6-0.1,3.1-0.2,4.7-0.3c52.6-3.7,104.9-11.8,156.1-24.2c3.3-0.8,6.6-1.6,9.9-2.3c170.9-39.5,328.4,95.2,289,247.5
		c-14.6,56.3-10.9,116.4,37.7,164.9C1227.3,547.6,1217.7,625.7,1197.8,674.9z"/>
</g>
<g id="Layer_3" class="st13">
	
		<image style="display:inline;overflow:visible;enable-background:new    ;" width="3162" height="1632" xlink:href="../../../../Users/devlit/Desktop/Screenshot 2023-08-30 at 10.22.37 AM.png"  transform="matrix(0.3251 0 0 0.3251 60.9811 48.4841)">
	</image>
	<rect x="118.1" y="142.3" class="st14" width="456.9" height="185.5"/>
	<rect x="615.4" y="142.3" class="st14" width="456.9" height="185.5"/>
</g>
<g id="Layer_4" class="st13">
	<g class="st15">
		<circle class="st16" cx="187.2" cy="245.4" r="56.8"/>
		
			<linearGradient id="SVGID_1_" gradientUnits="userSpaceOnUse" x1="132.1" y1="349.5319" x2="240.7" y2="349.5319" gradientTransform="matrix(1 0 0 -1 0 628)">
			<stop  offset="0" style="stop-color:#4ED192"/>
			<stop  offset="1" style="stop-color:#45DBDB"/>
		</linearGradient>
		<path class="st17" d="M240.7,264.6L240.7,264.6c0,0-8.2,7.7-21.1,7.7c-19.4,0-37.5-14.7-50.6-16.8c-18.4-3-36.9,3.8-36.9,3.8
			c6.2,24.6,28.5,42.9,55.1,42.9C211.9,302.3,232.9,286.6,240.7,264.6z"/>
		
			<linearGradient id="SVGID_00000009556551255684901740000002463571769232393141_" gradientUnits="userSpaceOnUse" x1="132.1" y1="348.4161" x2="240.7" y2="348.4161" gradientTransform="matrix(1 0 0 -1 0 628)">
			<stop  offset="0" style="stop-color:#4ED192"/>
			<stop  offset="1" style="stop-color:#45DBDB"/>
		</linearGradient>
		<path style="opacity:0.5;fill:url(#SVGID_00000009556551255684901740000002463571769232393141_);enable-background:new    ;" d="
			M240.7,264.6L240.7,264.6c0,0-5-3-15.2-3s-26.4,10.8-44.5,10.8s-21.4-11.2-30-14.4c-8.6-3.2-18.9,1.4-18.9,1.4
			c6.2,24.6,28.5,42.9,55.1,42.9C211.9,302.3,232.9,286.6,240.7,264.6z"/>
		<g>
			<path class="st19" d="M187.2,304.4c-32.5,0-59-26.5-59-59s26.5-59,59-59c1.2,0,2.2,1,2.2,2.2s-1,2.2-2.2,2.2
				c-30.1,0-54.7,24.5-54.7,54.7s24.5,54.7,54.7,54.7c22.9,0,43.6-14.6,51.4-36.3c0.4-1.1,1.6-1.7,2.8-1.3c1.1,0.4,1.7,1.6,1.3,2.8
				C234.2,288.7,211.9,304.4,187.2,304.4z"/>
		</g>
		<g>
			<path class="st19" d="M180.2,220.9v-1.2l1.5-1.4c3.6-3.4,5.2-5.2,5.2-7.3c0-1.4-0.7-2.7-2.8-2.7c-1.3,0-2.3,0.6-3,1.2l-0.6-1.3
				c1-0.8,2.3-1.4,4-1.4c3,0,4.3,2.1,4.3,4.1c0,2.6-1.9,4.7-4.8,7.5l-1.1,1l0,0h6.3v1.6h-9V220.9z"/>
			<path class="st19" d="M200.3,207v1.2l-6.1,12.7h-2l6.1-12.4l0,0h-6.8V207H200.3z"/>
			<path class="st19" d="M208.6,210.9c0,2.9-1.5,4.4-3.4,4.4c-1.7,0-3.2-1.4-3.3-4.2c0-2.8,1.5-4.4,3.4-4.4
				C207.3,206.7,208.6,208.2,208.6,210.9z M203.5,211c0,1.8,0.6,3.1,1.8,3.1s1.8-1.3,1.8-3.2c0-1.7-0.5-3.1-1.8-3.1
				C204.1,207.9,203.5,209.3,203.5,211z M205.1,221.2l8.2-14.4h1.2l-8.2,14.4H205.1z M217.7,216.7c0,2.9-1.5,4.4-3.3,4.4
				c-1.7,0-3.2-1.4-3.3-4.2c0-2.8,1.5-4.4,3.4-4.4C216.4,212.5,217.7,214,217.7,216.7z M212.6,216.8c0,1.8,0.7,3.1,1.8,3.1
				c1.2,0,1.8-1.3,1.8-3.2c0-1.7-0.5-3.1-1.8-3.1C213.2,213.7,212.6,215.1,212.6,216.8z"/>
		</g>
	</g>
	<g class="st15">
		<circle class="st16" cx="345.3" cy="245.4" r="56.8"/>
		
			<linearGradient id="SVGID_00000134227412659654933530000014880001376557983382_" gradientUnits="userSpaceOnUse" x1="301.7" y1="338.6156" x2="389.9" y2="338.6156" gradientTransform="matrix(1 0 0 -1 0 628)">
			<stop  offset="0" style="stop-color:#F42A6D"/>
			<stop  offset="0.2071" style="stop-color:#F52F73"/>
			<stop  offset="0.4757" style="stop-color:#F73D83"/>
			<stop  offset="0.7767" style="stop-color:#FB549D"/>
			<stop  offset="1" style="stop-color:#FF69B6"/>
		</linearGradient>
		<path style="opacity:0.5;fill:url(#SVGID_00000134227412659654933530000014880001376557983382_);enable-background:new    ;" d="
			M301.7,281.9c10.4,12.4,26.1,20.4,43.6,20.4c18.1,0,34.2-8.5,44.6-21.6c-24,3.5-44.8-4.8-57.8-4.2
			C318.6,277.1,301.8,281.8,301.7,281.9z"/>
		
			<linearGradient id="SVGID_00000147930090376413471860000008821951457610452645_" gradientUnits="userSpaceOnUse" x1="301.7" y1="338.6034" x2="389.9" y2="338.6034" gradientTransform="matrix(1 0 0 -1 0 628)">
			<stop  offset="0" style="stop-color:#F42A6D"/>
			<stop  offset="0.2071" style="stop-color:#F52F73"/>
			<stop  offset="0.4757" style="stop-color:#F73D83"/>
			<stop  offset="0.7767" style="stop-color:#FB549D"/>
			<stop  offset="1" style="stop-color:#FF69B6"/>
		</linearGradient>
		<path style="opacity:0.5;fill:url(#SVGID_00000147930090376413471860000008821951457610452645_);enable-background:new    ;" d="
			M301.7,281.9c10.4,12.4,26.1,20.4,43.6,20.4c18.1,0,34.2-8.5,44.6-21.6c-5.9-5.7-14.9-6.2-38.5,2.2
			C333.8,289,301.8,281.8,301.7,281.9z"/>
		<g>
			<path class="st22" d="M345.3,304.4c-32.5,0-59-26.5-59-59s26.5-59,59-59c1.2,0,2.2,1,2.2,2.2s-1,2.2-2.2,2.2
				c-30.1,0-54.7,24.5-54.7,54.7s24.5,54.7,54.7,54.7c16.7,0,32.3-7.6,42.8-20.9c0.7-0.9,2.1-1.1,3-0.3c0.9,0.7,1.1,2.1,0.3,3
				C380.2,296.2,363.3,304.4,345.3,304.4z"/>
		</g>
		<g>
			<path class="st22" d="M342.4,208.7L342.4,208.7l-2.5,1.3l-0.4-1.4l3.1-1.6h1.6v14h-1.8L342.4,208.7L342.4,208.7z"/>
			<path class="st22" d="M350.4,219.6c0.4,0,0.9,0,1.5-0.1c1.1-0.2,2.1-0.6,2.9-1.4c0.9-0.8,1.6-2.1,1.8-3.7h-0.1
				c-0.8,0.9-1.9,1.5-3.3,1.5c-2.5,0-4.1-1.9-4.1-4.3c0-2.6,1.9-5,4.8-5s4.6,2.3,4.6,5.9c0,3.1-1,5.2-2.4,6.6
				c-1.1,1.1-2.6,1.7-4.1,1.9c-0.7,0.1-1.3,0.1-1.7,0.1v-1.5H350.4z M351.1,211.6c0,1.7,1.1,3,2.7,3c1.3,0,2.3-0.6,2.8-1.5
				c0.1-0.2,0.2-0.4,0.2-0.7c0-2.4-0.9-4.2-2.9-4.2C352.2,208.2,351.1,209.6,351.1,211.6z"/>
			<path class="st22" d="M366.6,210.9c0,2.9-1.5,4.4-3.4,4.4c-1.7,0-3.2-1.4-3.3-4.2c0-2.8,1.5-4.4,3.4-4.4
				C365.4,206.7,366.6,208.2,366.6,210.9z M361.5,211c0,1.8,0.6,3.1,1.8,3.1c1.2,0,1.8-1.3,1.8-3.2c0-1.7-0.5-3.1-1.8-3.1
				C362.1,207.9,361.5,209.3,361.5,211z M363.2,221.2l8.2-14.4h1.2l-8.2,14.4H363.2z M375.7,216.7c0,2.9-1.5,4.4-3.3,4.4
				c-1.7,0-3.2-1.4-3.3-4.2c0-2.8,1.5-4.4,3.4-4.4C374.5,212.5,375.7,214,375.7,216.7z M370.6,216.8c0,1.8,0.7,3.1,1.8,3.1
				c1.2,0,1.8-1.3,1.8-3.2c0-1.7-0.5-3.1-1.8-3.1C371.3,213.7,370.6,215.1,370.6,216.8z"/>
		</g>
	</g>
	<g class="st15">
		<circle class="st16" cx="503.3" cy="245.4" r="56.8"/>
		
			<linearGradient id="SVGID_00000093882968782433777650000013041842671298589619_" gradientUnits="userSpaceOnUse" x1="446.5252" y1="363.0974" x2="560.1252" y2="363.0974" gradientTransform="matrix(1 0 0 -1 0 628)">
			<stop  offset="0" style="stop-color:#67C8F9"/>
			<stop  offset="5.873245e-02" style="stop-color:#67CDF8"/>
			<stop  offset="0.3742" style="stop-color:#69E1F2"/>
			<stop  offset="0.6889" style="stop-color:#6BEDEE"/>
			<stop  offset="1" style="stop-color:#6BF1ED"/>
		</linearGradient>
		<path style="opacity:0.5;fill:url(#SVGID_00000093882968782433777650000013041842671298589619_);enable-background:new    ;" d="
			M535.7,246c-19.4,0-37.6-13.9-50.6-16.8c-20.6-4.6-36.6,1.6-36.8,1.8c-1.2,4.6-1.9,9.5-1.9,14.5c0,31.4,25.4,56.8,56.8,56.8
			s56.8-25.4,56.8-56.8c0-2.8-0.2-5.6-0.6-8.3C559.5,237.2,548.6,246,535.7,246z"/>
		
			<linearGradient id="SVGID_00000021809606965829615830000012562017921294431130_" gradientUnits="userSpaceOnUse" x1="446.5" y1="362.6201" x2="560.1" y2="362.6201" gradientTransform="matrix(1 0 0 -1 0 628)">
			<stop  offset="0" style="stop-color:#67C8F9"/>
			<stop  offset="5.873245e-02" style="stop-color:#67CDF8"/>
			<stop  offset="0.3742" style="stop-color:#69E1F2"/>
			<stop  offset="0.6889" style="stop-color:#6BEDEE"/>
			<stop  offset="1" style="stop-color:#6BF1ED"/>
		</linearGradient>
		<path style="opacity:0.5;fill:url(#SVGID_00000021809606965829615830000012562017921294431130_);enable-background:new    ;" d="
			M535.5,242.5c-9.6,3.4-19,8.3-32.1,6.6c-18-2.4-27.6-16.2-36.2-19.5c-8-3-17.5,0.8-18.8,1.4c-1.2,4.6-1.9,9.5-1.9,14.5
			c0,31.4,25.4,56.8,56.8,56.8s56.8-25.4,56.8-56.8c0-2.8-0.2-5.6-0.6-8.3C559.5,237.1,542.2,240.1,535.5,242.5z"/>
		<g>
			<path class="st25" d="M503.3,304.4c-32.5,0-59-26.5-59-59s26.5-59,59-59c1.2,0,2.2,1,2.2,2.2s-1,2.2-2.2,2.2
				c-30.1,0-54.7,24.5-54.7,54.7s24.5,54.7,54.7,54.7s54.7-24.5,54.7-54.7c0-2.7-0.2-5.4-0.6-8c-0.2-1.2,0.6-2.3,1.8-2.4
				c1.2-0.2,2.3,0.6,2.4,1.8c0.4,2.8,0.6,5.7,0.6,8.6C562.3,277.9,535.9,304.4,503.3,304.4z"/>
		</g>
		<g>
			<path class="st25" d="M504.7,208.6h-5.3l-0.5,3.6c0.3,0,0.6-0.1,1.1-0.1c1.1,0,2.2,0.2,3,0.8c1.1,0.6,2,1.8,2,3.6
				c0,2.7-2.2,4.8-5.2,4.8c-1.5,0-2.8-0.4-3.5-0.9l0.5-1.4c0.6,0.3,1.7,0.8,3,0.8c1.8,0,3.3-1.2,3.3-3s-1.2-3.1-4-3.1
				c-0.8,0-1.4,0.1-1.9,0.2l0.9-6.7h6.7v1.4H504.7z"/>
			<path class="st25" d="M513.2,220.9v-3.8h-6.5v-1.2l6.2-8.9h2v8.7h2v1.5h-2v3.8h-1.7V220.9z M513.2,215.7V211c0-0.7,0-1.5,0.1-2.2
				h-0.1c-0.4,0.8-0.8,1.4-1.2,2.1l-3.4,4.8l0,0L513.2,215.7L513.2,215.7z"/>
			<path class="st25" d="M524.7,210.9c0,2.9-1.5,4.4-3.4,4.4c-1.7,0-3.2-1.4-3.3-4.2c0-2.8,1.5-4.4,3.4-4.4
				C523.4,206.7,524.7,208.2,524.7,210.9z M519.6,211c0,1.8,0.6,3.1,1.8,3.1s1.8-1.3,1.8-3.2c0-1.7-0.5-3.1-1.8-3.1
				C520.2,207.9,519.6,209.3,519.6,211z M521.2,221.2l8.2-14.4h1.2l-8.2,14.4H521.2z M533.8,216.7c0,2.9-1.5,4.4-3.3,4.4
				c-1.7,0-3.2-1.4-3.3-4.2c0-2.8,1.5-4.4,3.4-4.4C532.5,212.5,533.8,214,533.8,216.7z M528.7,216.8c0,1.8,0.7,3.1,1.8,3.1
				c1.2,0,1.8-1.3,1.8-3.2c0-1.7-0.5-3.1-1.8-3.1C529.3,213.7,528.7,215.1,528.7,216.8z"/>
		</g>
	</g>
	<g class="st15">
		<g>
			<path class="st19" d="M686.5,190.5h-6.8c-0.3,0-0.5,0.2-0.5,0.5v6.8c0,0.3,0.2,0.5,0.5,0.5h6.8c0.3,0,0.5-0.2,0.5-0.5V191
				C687,190.7,686.8,190.5,686.5,190.5z"/>
			<path class="st22" d="M809.2,190.5h-6.8c-0.3,0-0.5,0.2-0.5,0.5v6.8c0,0.3,0.2,0.5,0.5,0.5h6.8c0.3,0,0.5-0.2,0.5-0.5V191
				C809.7,190.7,809.5,190.5,809.2,190.5z"/>
			<path class="st25" d="M931.8,190.5H925c-0.3,0-0.5,0.2-0.5,0.5v6.8c0,0.3,0.2,0.5,0.5,0.5h6.8c0.3,0,0.5-0.2,0.5-0.5V191
				C932.3,190.7,932.1,190.5,931.8,190.5z"/>
			<g>
				<path class="st26" d="M948,202.6v-2.2c-1.3,0-2.6-0.4-3.4-1l0.5-1.5c0.8,0.5,1.9,0.9,3.2,0.9c1.6,0,2.6-0.9,2.6-2.1
					c0-1.2-0.9-2-2.5-2.6c-2.2-0.9-3.6-1.9-3.6-3.8c0-1.8,1.3-3.2,3.3-3.5v-2.2h1.4v2.1c1.3,0,2.2,0.4,2.9,0.8l-0.5,1.4
					c-0.5-0.3-1.4-0.7-2.8-0.7c-1.7,0-2.3,1-2.3,1.9c0,1.1,0.8,1.7,2.7,2.5c2.3,0.9,3.4,2.1,3.4,4c0,1.7-1.2,3.4-3.5,3.7v2.3
					L948,202.6L948,202.6z"/>
				<path class="st26" d="M966.1,200.8v-3.9h-6.6v-1.3l6.4-9.1h2.1v8.9h2v1.5h-2v3.9L966.1,200.8L966.1,200.8z M966.1,195.4v-4.8
					c0-0.7,0-1.5,0.1-2.2h-0.1c-0.4,0.8-0.8,1.4-1.2,2.1l-3.5,4.8l0,0L966.1,195.4L966.1,195.4z"/>
				<path class="st26" d="M971.8,198.5c0.5,0.4,1.8,0.9,3.2,0.9c2.5,0,3.2-1.6,3.2-2.8c0-2-1.8-2.9-3.7-2.9h-1.1v-1.4h1.1
					c1.4,0,3.2-0.7,3.2-2.4c0-1.1-0.7-2.1-2.5-2.1c-1.1,0-2.2,0.5-2.9,0.9l-0.5-1.4c0.7-0.5,2.2-1.1,3.7-1.1c2.8,0,4.1,1.7,4.1,3.4
					c0,1.5-0.9,2.7-2.6,3.4l0,0c1.8,0.4,3.2,1.7,3.2,3.7c0,2.3-1.8,4.3-5.2,4.3c-1.6,0-3-0.5-3.7-1L971.8,198.5z"/>
				<path class="st26" d="M982.8,199.6c0-0.8,0.5-1.4,1.3-1.4s1.3,0.6,1.3,1.4c0,0.8-0.5,1.4-1.3,1.4S982.8,200.4,982.8,199.6z"/>
				<path class="st26" d="M993.1,200.8v-3.9h-6.6v-1.3l6.4-9.1h2.1v8.9h2v1.5h-2v3.9L993.1,200.8L993.1,200.8z M993.1,195.4v-4.8
					c0-0.7,0-1.5,0.1-2.2h-0.1c-0.4,0.8-0.8,1.4-1.2,2.1l-3.5,4.8l0,0L993.1,195.4L993.1,195.4z"/>
				<path class="st26" d="M1007.9,193.5c0,4.8-1.8,7.5-5,7.5c-2.8,0-4.7-2.6-4.7-7.3c0-4.8,2.1-7.4,5-7.4
					C1006.2,186.3,1007.9,188.9,1007.9,193.5z M1000.1,193.7c0,3.7,1.1,5.8,2.9,5.8c2,0,2.9-2.3,2.9-5.9c0-3.5-0.9-5.8-2.9-5.8
					C1001.4,187.8,1000.1,189.8,1000.1,193.7z"/>
				<path class="st26" d="M1018.9,186.5v1.3l-6.2,13h-2l6.2-12.6l0,0h-7v-1.6L1018.9,186.5L1018.9,186.5z"/>
			</g>
			<g>
				<path class="st26" d="M825.4,202.6v-2.2c-1.3,0-2.6-0.4-3.4-1l0.5-1.5c0.8,0.5,1.9,0.9,3.2,0.9c1.6,0,2.6-0.9,2.6-2.1
					c0-1.2-0.9-2-2.5-2.6c-2.2-0.9-3.6-1.9-3.6-3.8c0-1.8,1.3-3.2,3.3-3.5v-2.2h1.4v2.1c1.3,0,2.2,0.4,2.9,0.8l-0.5,1.4
					c-0.5-0.3-1.4-0.7-2.8-0.7c-1.7,0-2.3,1-2.3,1.9c0,1.1,0.8,1.7,2.7,2.5c2.3,0.9,3.4,2.1,3.4,4c0,1.7-1.2,3.4-3.5,3.7v2.3
					L825.4,202.6L825.4,202.6z"/>
				<path class="st26" d="M841.7,188.3L841.7,188.3l-2.5,1.3l-0.4-1.5l3.1-1.7h1.6v14.3h-1.9v-12.4H841.7z"/>
				<path class="st26" d="M856.9,187.9c-0.4,0-0.9,0-1.4,0.1c-3,0.5-4.6,2.7-5,5.1h0.1c0.7-0.9,1.9-1.6,3.4-1.6
					c2.5,0,4.3,1.8,4.3,4.6c0,2.6-1.8,5-4.7,5c-3,0-5-2.4-5-6.1c0-2.8,1-5,2.4-6.4c1.2-1.2,2.8-1.9,4.6-2.1c0.6-0.1,1.1-0.1,1.4-0.1
					L856.9,187.9L856.9,187.9z M856.3,196.1c0-2-1.2-3.3-2.9-3.3c-1.2,0-2.2,0.7-2.8,1.8c-0.1,0.2-0.2,0.5-0.2,0.9
					c0,2.3,1.1,4.1,3.1,4.1C855.2,199.5,856.3,198.1,856.3,196.1z"/>
				<path class="st26" d="M860.1,199.6c0-0.8,0.5-1.4,1.3-1.4s1.3,0.6,1.3,1.4c0,0.8-0.5,1.4-1.3,1.4S860.1,200.4,860.1,199.6z"/>
				<path class="st26" d="M865.6,199.4c0.4,0,0.9,0,1.6-0.1c1.1-0.2,2.2-0.6,3-1.4c0.9-0.9,1.6-2.1,1.9-3.8H872
					c-0.8,1-1.9,1.5-3.4,1.5c-2.6,0-4.2-1.9-4.2-4.4c0-2.7,2-5.1,4.9-5.1s4.7,2.4,4.7,6c0,3.1-1.1,5.3-2.5,6.7
					c-1.1,1.1-2.6,1.7-4.1,1.9c-0.7,0.1-1.3,0.1-1.8,0.1L865.6,199.4L865.6,199.4z M866.3,191.2c0,1.8,1.1,3,2.7,3
					c1.3,0,2.3-0.6,2.8-1.5c0.1-0.2,0.2-0.4,0.2-0.7c0-2.4-0.9-4.3-2.9-4.3C867.5,187.7,866.3,189.2,866.3,191.2z"/>
				<path class="st26" d="M876.2,198.5c0.5,0.4,1.8,0.9,3.2,0.9c2.5,0,3.2-1.6,3.2-2.8c0-2-1.8-2.9-3.7-2.9h-1.1v-1.4h1.1
					c1.4,0,3.2-0.7,3.2-2.4c0-1.1-0.7-2.1-2.5-2.1c-1.1,0-2.2,0.5-2.9,0.9l-0.5-1.4c0.7-0.5,2.2-1.1,3.7-1.1c2.8,0,4.1,1.7,4.1,3.4
					c0,1.5-0.9,2.7-2.6,3.4l0,0c1.8,0.4,3.2,1.7,3.2,3.7c0,2.3-1.8,4.3-5.2,4.3c-1.6,0-3-0.5-3.7-1L876.2,198.5z"/>
				<path class="st26" d="M887,200.8v-1.2l1.5-1.5c3.6-3.5,5.3-5.3,5.3-7.5c0-1.4-0.7-2.8-2.8-2.8c-1.3,0-2.4,0.7-3,1.2l-0.6-1.4
					c1-0.8,2.4-1.4,4-1.4c3.1,0,4.4,2.1,4.4,4.1c0,2.6-1.9,4.8-4.9,7.7l-1.1,1.1l0,0h6.4v1.6L887,200.8L887,200.8z"/>
			</g>
			<g>
				<path class="st26" d="M702.7,202.6v-2.2c-1.3,0-2.6-0.4-3.4-1l0.5-1.5c0.8,0.5,1.9,0.9,3.2,0.9c1.6,0,2.6-0.9,2.6-2.1
					c0-1.2-0.9-2-2.5-2.6c-2.2-0.9-3.6-1.9-3.6-3.8c0-1.8,1.3-3.2,3.3-3.5v-2.2h1.4v2.1c1.3,0,2.2,0.4,2.9,0.8l-0.5,1.4
					c-0.5-0.3-1.4-0.7-2.8-0.7c-1.7,0-2.3,1-2.3,1.9c0,1.1,0.8,1.7,2.7,2.5c2.3,0.9,3.4,2.1,3.4,4c0,1.7-1.2,3.4-3.5,3.7v2.3
					L702.7,202.6L702.7,202.6z"/>
				<path class="st26" d="M714.8,200.8v-1.2l1.5-1.5c3.6-3.5,5.3-5.3,5.3-7.5c0-1.4-0.7-2.8-2.8-2.8c-1.3,0-2.4,0.7-3,1.2l-0.6-1.4
					c1-0.8,2.4-1.4,4-1.4c3.1,0,4.4,2.1,4.4,4.1c0,2.6-1.9,4.8-4.9,7.7l-1.1,1.1l0,0h6.4v1.6L714.8,200.8L714.8,200.8z"/>
				<path class="st26" d="M726.1,200.8v-1.2l1.5-1.5c3.6-3.5,5.3-5.3,5.3-7.5c0-1.4-0.7-2.8-2.8-2.8c-1.3,0-2.4,0.7-3,1.2l-0.6-1.4
					c1-0.8,2.4-1.4,4-1.4c3.1,0,4.4,2.1,4.4,4.1c0,2.6-1.9,4.8-4.9,7.7l-1.1,1.1l0,0h6.4v1.6L726.1,200.8L726.1,200.8z"/>
				<path class="st26" d="M737.5,199.6c0-0.8,0.5-1.4,1.3-1.4s1.3,0.6,1.3,1.4c0,0.8-0.5,1.4-1.3,1.4S737.5,200.4,737.5,199.6z"/>
				<path class="st26" d="M751.3,193.5c0,4.8-1.8,7.5-5,7.5c-2.8,0-4.7-2.6-4.7-7.3c0-4.8,2.1-7.4,5-7.4
					C749.6,186.3,751.3,188.9,751.3,193.5z M743.6,193.7c0,3.7,1.1,5.8,2.9,5.8c2,0,2.9-2.3,2.9-5.9c0-3.5-0.9-5.8-2.9-5.8
					C744.8,187.8,743.6,189.8,743.6,193.7z"/>
				<path class="st26" d="M759.1,200.8v-3.9h-6.6v-1.3l6.4-9.1h2.1v8.9h2v1.5h-2v3.9L759.1,200.8L759.1,200.8z M759.1,195.4v-4.8
					c0-0.7,0-1.5,0.1-2.2h-0.1c-0.4,0.8-0.8,1.4-1.2,2.1l-3.5,4.8l0,0L759.1,195.4L759.1,195.4z"/>
				<path class="st26" d="M764.2,197.1c0-1.8,1.1-3.1,2.8-3.8v-0.1c-1.6-0.7-2.3-2-2.3-3.2c0-2.3,1.9-3.8,4.4-3.8
					c2.8,0,4.1,1.7,4.1,3.5c0,1.2-0.6,2.5-2.3,3.3v0.1c1.8,0.7,2.9,2,2.9,3.7c0,2.5-2.1,4.1-4.8,4.1
					C766,201,764.2,199.2,764.2,197.1z M771.8,197.1c0-1.7-1.2-2.6-3.1-3.1c-1.7,0.5-2.6,1.6-2.6,2.9c-0.1,1.4,1,2.7,2.9,2.7
					C770.7,199.6,771.8,198.5,771.8,197.1z M766.5,189.9c0,1.4,1.1,2.2,2.7,2.6c1.2-0.4,2.2-1.3,2.2-2.6c0-1.1-0.7-2.3-2.4-2.3
					C767.4,187.6,766.5,188.7,766.5,189.9z"/>
			</g>
		</g>
		<g>
			<path class="st27" d="M967.5,296.6H698.3c-0.3,0-0.5,0.2-0.5,0.5v6.7c0,0.3,0.2,0.5,0.5,0.5h269.2c0.3,0,0.5-0.2,0.5-0.5v-6.7
				C968.1,296.8,967.8,296.6,967.5,296.6z"/>
			<path class="st25" d="M849.5,296.6H698.3c-0.3,0-0.5,0.2-0.5,0.5v6.7c0,0.3,0.2,0.5,0.5,0.5h151.2c0.3,0,0.5-0.2,0.5-0.5v-6.7
				C850,296.8,849.8,296.6,849.5,296.6z"/>
			<path class="st27" d="M967.5,273.3H698.3c-0.3,0-0.5,0.2-0.5,0.5v6.7c0,0.3,0.2,0.5,0.5,0.5h269.2c0.3,0,0.5-0.2,0.5-0.5v-6.7
				C968.1,273.5,967.8,273.3,967.5,273.3z"/>
			<path class="st22" d="M766.4,273.3h-68.1c-0.3,0-0.5,0.2-0.5,0.5v6.7c0,0.3,0.2,0.5,0.5,0.5h68.1c0.3,0,0.5-0.2,0.5-0.5v-6.7
				C767,273.5,766.7,273.3,766.4,273.3z"/>
			<path class="st27" d="M967.5,249.9H698.3c-0.3,0-0.5,0.2-0.5,0.5v6.7c0,0.3,0.2,0.5,0.5,0.5h269.2c0.3,0,0.5-0.2,0.5-0.5v-6.7
				C968.1,250.2,967.8,249.9,967.5,249.9z"/>
			<path class="st19" d="M794.1,249.9h-95.8c-0.3,0-0.5,0.2-0.5,0.5v6.7c0,0.3,0.2,0.5,0.5,0.5h95.8c0.3,0,0.5-0.2,0.5-0.5v-6.7
				C794.6,250.2,794.4,249.9,794.1,249.9z"/>
			<g>
				<path class="st26" d="M660.7,257.7V257l1-0.9c2.3-2.2,3.4-3.4,3.4-4.8c0-0.9-0.4-1.8-1.8-1.8c-0.8,0-1.5,0.4-1.9,0.8l-0.4-0.9
					c0.6-0.5,1.5-0.9,2.6-0.9c2,0,2.8,1.3,2.8,2.6c0,1.7-1.2,3-3.1,4.9l-0.7,0.7l0,0h4.1v1L660.7,257.7L660.7,257.7z"/>
				<path class="st26" d="M673.8,248.6v0.8l-4,8.3h-1.3l3.9-8l0,0H668v-1h5.8V248.6z"/>
				<path class="st26" d="M679.2,251.2c0,1.9-1,2.9-2.2,2.9c-1.1,0-2.1-0.9-2.1-2.7s1-2.8,2.2-2.8
					C678.4,248.5,679.2,249.4,679.2,251.2z M675.9,251.3c0,1.2,0.4,2,1.2,2s1.2-0.9,1.2-2.1c0-1.1-0.3-2-1.2-2
					C676.3,249.2,675.9,250.1,675.9,251.3z M676.9,257.9l5.3-9.4h0.8l-5.3,9.4H676.9z M685.1,254.9c0,1.9-1,2.9-2.2,2.9
					c-1.1,0-2.1-0.9-2.1-2.7s1-2.9,2.2-2.9C684.3,252.2,685.1,253.2,685.1,254.9z M681.8,255c0,1.2,0.4,2,1.2,2s1.2-0.9,1.2-2.1
					c0-1.1-0.3-2-1.2-2C682.2,253,681.8,253.9,681.8,255z"/>
			</g>
			<g>
				<path class="st26" d="M662.8,273.1L662.8,273.1l-1.6,0.9l-0.2-1l2-1.1h1v9.1h-1.2V273.1z"/>
				<path class="st26" d="M668.1,280.2c0.3,0,0.6,0,1,0c0.7-0.1,1.4-0.4,1.9-0.9c0.6-0.5,1-1.3,1.2-2.4l0,0c-0.5,0.6-1.2,1-2.1,1
					c-1.6,0-2.7-1.2-2.7-2.8c0-1.7,1.2-3.2,3.1-3.2c1.9,0,3,1.5,3,3.8c0,2-0.7,3.4-1.6,4.3c-0.7,0.7-1.7,1.1-2.6,1.2
					c-0.4,0.1-0.8,0.1-1.1,0.1v-1.1H668.1z M668.5,274.9c0,1.1,0.7,1.9,1.7,1.9c0.8,0,1.5-0.4,1.8-1c0.1-0.1,0.1-0.3,0.1-0.4
					c0-1.6-0.6-2.7-1.9-2.7C669.2,272.7,668.5,273.6,668.5,274.9z"/>
				<path class="st26" d="M678.6,274.5c0,1.9-1,2.9-2.2,2.9c-1.1,0-2.1-0.9-2.1-2.7c0-1.8,1-2.8,2.2-2.8
					C677.8,271.8,678.6,272.8,678.6,274.5z M675.3,274.6c0,1.2,0.4,2,1.2,2s1.2-0.9,1.2-2.1c0-1.1-0.3-2-1.2-2
					C675.7,272.5,675.3,273.4,675.3,274.6z M676.4,281.2l5.3-9.4h0.8l-5.3,9.4H676.4z M684.5,278.3c0,1.9-1,2.9-2.2,2.9
					c-1.1,0-2.1-0.9-2.1-2.7c0-1.8,1-2.9,2.2-2.9C683.7,275.5,684.5,276.5,684.5,278.3z M681.2,278.3c0,1.2,0.4,2,1.2,2
					s1.2-0.9,1.2-2.1c0-1.1-0.3-2-1.2-2C681.6,276.3,681.2,277.2,681.2,278.3z"/>
			</g>
			<g>
				<path class="st26" d="M665.6,296.3h-3.5l-0.3,2.3c0.2,0,0.4-0.1,0.7-0.1c0.7,0,1.4,0.2,2,0.5c0.7,0.4,1.3,1.2,1.3,2.3
					c0,1.8-1.4,3.1-3.4,3.1c-1,0-1.8-0.3-2.3-0.6l0.3-0.9c0.4,0.2,1.1,0.5,1.9,0.5c1.2,0,2.2-0.8,2.2-2s-0.8-2-2.6-2
					c-0.5,0-0.9,0.1-1.3,0.1l0.6-4.4h4.3L665.6,296.3L665.6,296.3z"/>
				<path class="st26" d="M671.1,304.3v-2.5h-4.2V301l4.1-5.8h1.3v5.6h1.3v1h-1.3v2.5L671.1,304.3L671.1,304.3z M671.1,300.9v-3
					c0-0.5,0-1,0-1.4l0,0c-0.3,0.5-0.5,0.9-0.8,1.3l-2.2,3.1l0,0H671.1z"/>
				<path class="st26" d="M678.6,297.8c0,1.9-1,2.9-2.2,2.9c-1.1,0-2.1-0.9-2.1-2.7c0-1.8,1-2.8,2.2-2.8
					C677.8,295.1,678.6,296.1,678.6,297.8z M675.3,297.9c0,1.2,0.4,2,1.2,2s1.2-0.9,1.2-2.1c0-1.1-0.3-2-1.2-2
					C675.7,295.8,675.3,296.8,675.3,297.9z M676.4,304.5l5.3-9.4h0.8l-5.3,9.4H676.4z M684.5,301.6c0,1.9-1,2.9-2.2,2.9
					c-1.1,0-2.1-0.9-2.1-2.7c0-1.8,1-2.9,2.2-2.9C683.7,298.9,684.5,299.8,684.5,301.6z M681.2,301.7c0,1.2,0.4,2,1.2,2
					s1.2-0.9,1.2-2.1c0-1.1-0.3-2-1.2-2C681.6,299.6,681.2,300.5,681.2,301.7z"/>
			</g>
			<g>
				<path class="st26" d="M987.4,258.9v-1.4c-0.8,0-1.6-0.3-2.1-0.6l0.3-0.9c0.5,0.3,1.2,0.6,2,0.6c1,0,1.7-0.6,1.7-1.4
					c0-0.8-0.5-1.2-1.6-1.7c-1.4-0.6-2.3-1.2-2.3-2.4s0.8-2,2.1-2.3v-1.4h0.9v1.4c0.8,0,1.4,0.3,1.8,0.5l-0.3,0.9
					c-0.3-0.2-0.9-0.5-1.8-0.5c-1.1,0-1.5,0.6-1.5,1.2c0,0.7,0.5,1.1,1.7,1.6c1.4,0.6,2.2,1.3,2.2,2.6c0,1.1-0.8,2.1-2.2,2.4v1.5
					h-0.9V258.9z"/>
				<path class="st26" d="M995.1,257.7V257l1-0.9c2.3-2.2,3.4-3.4,3.4-4.8c0-0.9-0.4-1.8-1.8-1.8c-0.8,0-1.5,0.4-1.9,0.8l-0.4-0.9
					c0.6-0.5,1.5-0.9,2.6-0.9c2,0,2.8,1.3,2.8,2.6c0,1.7-1.2,3-3.1,4.9l-0.7,0.7l0,0h4.1v1L995.1,257.7L995.1,257.7z"/>
				<path class="st26" d="M1002.3,257.7V257l1-0.9c2.3-2.2,3.4-3.4,3.4-4.8c0-0.9-0.4-1.8-1.8-1.8c-0.8,0-1.5,0.4-1.9,0.8l-0.4-0.9
					c0.6-0.5,1.5-0.9,2.6-0.9c2,0,2.8,1.3,2.8,2.6c0,1.7-1.2,3-3.1,4.9l-0.7,0.7l0,0h4.1v1L1002.3,257.7L1002.3,257.7z"/>
				<path class="st26" d="M1009.6,257c0-0.5,0.3-0.9,0.8-0.9s0.8,0.4,0.8,0.9s-0.3,0.9-0.8,0.9
					C1009.9,257.9,1009.6,257.5,1009.6,257z"/>
				<path class="st26" d="M1018.4,253.1c0,3.1-1.1,4.8-3.2,4.8c-1.8,0-3-1.7-3-4.7c0-3,1.3-4.7,3.2-4.7
					C1017.3,248.5,1018.4,250.2,1018.4,253.1z M1013.5,253.2c0,2.4,0.7,3.7,1.8,3.7c1.3,0,1.9-1.5,1.9-3.8c0-2.2-0.6-3.7-1.8-3.7
					S1013.5,250.7,1013.5,253.2z"/>
				<path class="st26" d="M1023.3,257.7v-2.5h-4.2v-0.8l4.1-5.8h1.3v5.7h1.3v1h-1.3v2.5L1023.3,257.7L1023.3,257.7z M1023.3,254.3
					v-3c0-0.5,0-1,0-1.4l0,0c-0.3,0.5-0.5,0.9-0.8,1.3l-2.2,3.1l0,0L1023.3,254.3L1023.3,254.3z"/>
				<path class="st26" d="M1026.6,255.4c0-1.1,0.7-2,1.8-2.4l0,0c-1-0.5-1.4-1.3-1.4-2c0-1.4,1.2-2.4,2.8-2.4c1.8,0,2.6,1.1,2.6,2.2
					c0,0.8-0.4,1.6-1.5,2.1l0,0c1.1,0.4,1.8,1.2,1.8,2.4c0,1.6-1.4,2.6-3.1,2.6C1027.7,257.9,1026.6,256.7,1026.6,255.4z
					 M1031.5,255.3c0-1.1-0.8-1.6-2-2c-1.1,0.3-1.6,1-1.6,1.9c0,0.9,0.7,1.7,1.8,1.7C1030.8,257,1031.5,256.3,1031.5,255.3z
					 M1028.1,250.8c0,0.9,0.7,1.4,1.7,1.7c0.8-0.3,1.4-0.8,1.4-1.6c0-0.7-0.4-1.5-1.5-1.5C1028.7,249.3,1028.1,250,1028.1,250.8z"/>
			</g>
			<g>
				<path class="st26" d="M986.8,282.2v-1.4c-0.8,0-1.6-0.3-2.1-0.6l0.3-0.9c0.5,0.3,1.2,0.6,2,0.6c1,0,1.7-0.6,1.7-1.4
					s-0.5-1.2-1.6-1.7c-1.4-0.6-2.3-1.2-2.3-2.4c0-1.2,0.8-2,2.1-2.3v-1.4h0.9v1.4c0.8,0,1.4,0.3,1.8,0.5l-0.3,0.9
					c-0.3-0.2-0.9-0.5-1.8-0.5c-1.1,0-1.5,0.6-1.5,1.2c0,0.7,0.5,1.1,1.7,1.6c1.4,0.6,2.2,1.3,2.2,2.6c0,1.1-0.8,2.1-2.2,2.4v1.5
					h-0.9V282.2z"/>
				<path class="st26" d="M997.2,273.1L997.2,273.1l-1.6,0.9l-0.2-0.9l2-1.1h1v9.1h-1.2V273.1z"/>
				<path class="st26" d="M1006.9,272.8c-0.3,0-0.6,0-0.9,0.1c-1.9,0.3-3,1.7-3.2,3.2l0,0c0.4-0.6,1.2-1,2.2-1
					c1.6,0,2.7,1.2,2.7,2.9c0,1.7-1.1,3.2-3,3.2s-3.2-1.5-3.2-3.9c0-1.8,0.6-3.2,1.5-4.1c0.8-0.7,1.8-1.2,2.9-1.3
					c0.4-0.1,0.7-0.1,0.9-0.1L1006.9,272.8L1006.9,272.8z M1006.5,278c0-1.3-0.7-2.1-1.9-2.1c-0.7,0-1.4,0.5-1.8,1.1
					c-0.1,0.1-0.1,0.3-0.1,0.5c0,1.5,0.7,2.6,2,2.6C1005.8,280.2,1006.5,279.3,1006.5,278z"/>
				<path class="st26" d="M1009,280.3c0-0.5,0.3-0.9,0.8-0.9s0.8,0.4,0.8,0.9s-0.3,0.9-0.8,0.9C1009.3,281.2,1009,280.8,1009,280.3z
					"/>
				<path class="st26" d="M1012.5,280.2c0.3,0,0.6,0,1,0c0.7-0.1,1.4-0.4,1.9-0.9c0.6-0.5,1-1.3,1.2-2.4l0,0c-0.5,0.6-1.2,1-2.1,1
					c-1.6,0-2.7-1.2-2.7-2.8c0-1.7,1.2-3.2,3.1-3.2c1.9,0,3,1.5,3,3.8c0,2-0.7,3.4-1.6,4.3c-0.7,0.7-1.7,1.1-2.6,1.2
					c-0.4,0.1-0.8,0.1-1.1,0.1v-1.1H1012.5z M1012.9,274.9c0,1.1,0.7,1.9,1.7,1.9c0.8,0,1.5-0.4,1.8-1c0.1-0.1,0.1-0.3,0.1-0.4
					c0-1.6-0.6-2.7-1.9-2.7C1013.7,272.7,1012.9,273.6,1012.9,274.9z"/>
				<path class="st26" d="M1019.3,279.6c0.3,0.2,1.2,0.6,2,0.6c1.6,0,2.1-1,2.1-1.8c0-1.3-1.2-1.8-2.3-1.8h-0.7v-0.9h0.7
					c0.9,0,2-0.5,2-1.5c0-0.7-0.5-1.4-1.6-1.4c-0.7,0-1.4,0.3-1.8,0.6l-0.3-0.9c0.5-0.3,1.4-0.7,2.4-0.7c1.8,0,2.6,1.1,2.6,2.2
					c0,0.9-0.6,1.7-1.7,2.1l0,0c1.1,0.2,2,1.1,2,2.3c0,1.5-1.1,2.7-3.3,2.7c-1,0-1.9-0.3-2.4-0.6L1019.3,279.6z"/>
				<path class="st26" d="M1026.1,281v-0.8l1-0.9c2.3-2.2,3.4-3.4,3.4-4.8c0-0.9-0.4-1.8-1.8-1.8c-0.8,0-1.5,0.4-1.9,0.8l-0.4-0.9
					c0.6-0.5,1.5-0.9,2.6-0.9c2,0,2.8,1.3,2.8,2.6c0,1.7-1.2,3-3.1,4.9l-0.7,0.7l0,0h4.1v1L1026.1,281L1026.1,281z"/>
			</g>
			<g>
				<path class="st26" d="M986.8,305.5v-1.4c-0.8,0-1.6-0.3-2.1-0.6l0.3-0.9c0.5,0.3,1.2,0.6,2,0.6c1,0,1.7-0.6,1.7-1.4
					s-0.5-1.2-1.6-1.7c-1.4-0.6-2.3-1.2-2.3-2.4c0-1.2,0.8-2,2.1-2.3V294h0.9v1.4c0.8,0,1.4,0.3,1.8,0.5l-0.3,0.9
					c-0.3-0.2-0.9-0.5-1.8-0.5c-1.1,0-1.5,0.6-1.5,1.2c0,0.7,0.5,1.1,1.7,1.6c1.4,0.6,2.2,1.3,2.2,2.6c0,1.1-0.8,2.1-2.2,2.4v1.5
					h-0.9V305.5z"/>
				<path class="st26" d="M998.3,304.3v-2.5h-4.2V301l4.1-5.8h1.3v5.6h1.3v1h-1.3v2.5L998.3,304.3L998.3,304.3z M998.3,300.9v-3
					c0-0.5,0-1,0-1.4l0,0c-0.3,0.5-0.5,0.9-0.8,1.3l-2.2,3.1l0,0H998.3z"/>
				<path class="st26" d="M1002,302.9c0.3,0.2,1.2,0.6,2,0.6c1.6,0,2.1-1,2.1-1.8c0-1.3-1.2-1.8-2.3-1.8h-0.7V299h0.7
					c0.9,0,2-0.5,2-1.5c0-0.7-0.5-1.4-1.6-1.4c-0.7,0-1.4,0.3-1.8,0.6l-0.3-0.9c0.5-0.3,1.4-0.7,2.4-0.7c1.8,0,2.6,1.1,2.6,2.2
					c0,0.9-0.6,1.7-1.7,2.1l0,0c1.1,0.2,2,1.1,2,2.3c0,1.5-1.1,2.7-3.3,2.7c-1,0-1.9-0.3-2.4-0.6L1002,302.9z"/>
				<path class="st26" d="M1009,303.6c0-0.5,0.3-0.9,0.8-0.9s0.8,0.4,0.8,0.9s-0.3,0.9-0.8,0.9S1009,304.1,1009,303.6z"/>
				<path class="st26" d="M1015.6,304.3v-2.5h-4.2V301l4.1-5.8h1.3v5.6h1.3v1h-1.3v2.5L1015.6,304.3L1015.6,304.3z M1015.6,300.9v-3
					c0-0.5,0-1,0-1.4l0,0c-0.3,0.5-0.5,0.9-0.8,1.3l-2.2,3.1l0,0H1015.6z"/>
				<path class="st26" d="M1025,299.7c0,3.1-1.1,4.8-3.2,4.8c-1.8,0-3-1.7-3-4.7s1.3-4.7,3.2-4.7
					C1023.9,295.1,1025,296.8,1025,299.7z M1020.1,299.8c0,2.4,0.7,3.7,1.8,3.7c1.3,0,1.9-1.5,1.9-3.8c0-2.2-0.6-3.7-1.8-3.7
					C1020.8,296.1,1020.1,297.4,1020.1,299.8z"/>
				<path class="st26" d="M1032,295.3v0.8l-4,8.3h-1.3l3.9-8l0,0h-4.4v-1L1032,295.3L1032,295.3z"/>
			</g>
		</g>
	</g>
</g>
</svg>
